<svg t="1750922274101" class="icon" viewBox="0 0 1024 1024" version="1.1" xmlns="http://www.w3.org/2000/svg" p-id="8689" width="200" height="200"><path d="M948.624498 436.110222v-166.115555c0-12.8-6.428444-25.6-19.171556-25.6l-115.029333-63.886223c-12.8-6.371556-25.6-6.371556-31.971556 0L629.193387 257.194667c-19.171556 12.8-19.171556 44.714667 0 57.514666l102.229333 57.457778a48.810667 48.810667 0 0 1 12.743111 32.028445v108.600888c0 25.6 25.6 38.343111 51.143111 25.6l134.200889-76.743111c12.743111 0 19.171556-12.743111 19.171556-25.543111z" fill="#9EBBED" p-id="8690"></path><path d="M322.391609 455.281778v147.000889c0 12.743111 6.371556 25.543111 19.171555 25.543111l134.200889 76.686222c12.743111 6.371556 25.543111 6.371556 31.914667 0l134.257778-76.686222c12.743111-6.371556 19.114667-19.171556 19.114666-25.6V455.338667c0-12.8-6.371556-25.6-19.171555-25.6L501.307164 353.109333c-12.8-6.371556-25.6-6.371556-31.971555 0L335.191609 429.738667c-6.428444 6.371556-12.8 19.171556-12.8 25.6z m472.860444 408.974222l134.200889-76.686222c12.743111-6.371556 19.171556-19.171556 19.171556-25.6v-140.515556c0-25.6-25.6-38.343111-51.143111-25.6l-134.200889 76.686222c-12.743111 6.371556-19.171556 19.171556-19.171556 25.6v134.144c0 31.971556 31.971556 44.771556 51.143111 31.971556zM488.507164 1024c19.171556 0 38.343111-6.371556 57.514667-19.171556l89.486222-51.143111c12.743111-6.371556 19.171556-19.171556 19.171556-25.543111v-134.200889c0-25.543111-25.6-38.343111-51.143111-25.543111l-102.229334 57.457778c-12.8 6.428444-25.6 6.428444-31.971555 0l-102.229333-57.457778c-19.171556-12.8-51.086222 0-51.086223 25.6v134.144c0 12.8 6.371556 25.6 19.171556 25.6l95.800889 51.086222c19.171556 12.8 38.343111 19.171556 57.514666 19.171556z" fill="#1755C2" p-id="8691"></path><path d="M546.021831 14.392889a135.395556 135.395556 0 0 0-121.400889 0l-108.657778 63.886222c-19.114667 12.8-19.114667 44.714667 6.428445 57.457778L475.764053 225.28c12.743111 6.428444 25.543111 6.428444 31.914667 0l153.372444-89.429333c19.171556-12.8 19.171556-44.714667 0-57.514667L546.021831 14.392889z" fill="#9EBBED" p-id="8692"></path><path d="M47.618276 787.569778l127.772444 76.686222c19.171556 12.8 51.2 0 51.2-25.6v-134.144c0-12.8-6.428444-25.6-19.228444-25.6L79.64672 602.282667c-19.171556-25.6-51.143111-6.428444-51.143111 19.171555v134.144c0 12.8 6.371556 25.6 19.171555 31.971556z m198.087111-408.974222l102.229333-57.457778c19.171556-12.8 19.171556-44.771556 0-57.571556L194.562276 174.136889c-12.743111-6.371556-25.543111-6.371556-31.914667 0L47.618276 238.023111A35.157333 35.157333 0 0 0 28.44672 269.994667v172.487111c0 12.8 6.371556 25.6 19.171556 25.6l127.772444 76.686222c19.171556 12.743111 51.2 0 51.2-25.6V404.195556c0-12.8 6.314667-25.6 19.114667-25.6z" fill="#1755C2" p-id="8693"></path></svg>